<mxfile host="app.diagrams.net" modified="2022-11-26T07:53:48.756Z" agent="5.0 (Windows NT 10.0; Win64; x64) AppleWebKit/537.36 (KHTML, like Gecko) Chrome/107.0.0.0 Safari/537.36" version="20.6.0" etag="_DUujcJENna8qdvW2EJ8" type="gitlab" pages="3">
  <diagram id="-aEmUAej3urHHkhpdaoh" name="Page-1">
    <mxGraphModel dx="2062" dy="1192" grid="1" gridSize="10" guides="1" tooltips="1" connect="1" arrows="1" fold="1" page="1" pageScale="1" pageWidth="1600" pageHeight="900" math="0" shadow="0">
      <root>
        <mxCell id="0" />
        <mxCell id="1" parent="0" />
        <mxCell id="59R9F3fv3jk_nmW581Oc-1" value="" style="strokeWidth=1;shadow=0;dashed=0;align=center;html=1;shape=mxgraph.mockup.containers.browserWindow;rSize=0;strokeColor=#666666;mainText=,;recursiveResize=0;rounded=0;labelBackgroundColor=none;fontFamily=Verdana;fontSize=12;container=0;" vertex="1" parent="1">
          <mxGeometry x="50" y="210" width="1160" height="1070" as="geometry" />
        </mxCell>
        <mxCell id="59R9F3fv3jk_nmW581Oc-2" value="Home" style="strokeWidth=1;shadow=0;dashed=0;align=center;html=1;shape=mxgraph.mockup.containers.anchor;fontSize=17;fontColor=#666666;align=left;" vertex="1" parent="1">
          <mxGeometry x="110" y="222" width="110" height="26" as="geometry" />
        </mxCell>
        <mxCell id="59R9F3fv3jk_nmW581Oc-3" value="https://www.default.com" style="strokeWidth=1;shadow=0;dashed=0;align=center;html=1;shape=mxgraph.mockup.containers.anchor;rSize=0;fontSize=17;fontColor=#666666;align=left;" vertex="1" parent="1">
          <mxGeometry x="180" y="270" width="250" height="26" as="geometry" />
        </mxCell>
        <mxCell id="59R9F3fv3jk_nmW581Oc-4" value="Prediction Of Heart Attack &amp;amp; Disease" style="text;html=1;points=[];align=left;verticalAlign=top;spacingTop=-4;fontSize=30;fontFamily=Verdana" vertex="1" parent="1">
          <mxGeometry x="65" y="550" width="500" height="50" as="geometry" />
        </mxCell>
        <mxCell id="59R9F3fv3jk_nmW581Oc-5" value="" style="verticalLabelPosition=bottom;shadow=0;dashed=0;align=center;html=1;verticalAlign=top;strokeWidth=1;shape=mxgraph.mockup.graphics.simpleIcon;strokeColor=#999999;fillColor=#ffffff;rounded=0;labelBackgroundColor=none;fontFamily=Verdana;fontSize=12;fontColor=#000000;" vertex="1" parent="1">
          <mxGeometry x="50" y="320" width="1160" height="200" as="geometry" />
        </mxCell>
        <mxCell id="59R9F3fv3jk_nmW581Oc-6" value="&lt;h1&gt;Information&amp;nbsp;&lt;/h1&gt;&lt;p&gt;Lorem ipsum dolor sit amet, consectetur adipisicing elit, sed do eiusmod tempor incididunt ut labore et dolore magna aliqua.&amp;nbsp;&lt;/p&gt;Lorem ipsum dolor sit amet, consectetur adipisicing elit, sed do eiusmod tempor incididunt ut labore et dolore magna aliqua. Lorem ipsum dolor sit amet, consectetur adipisicing elit, sed do eiusmod tempor incididunt ut labore et dolore magna aliqua. Lorem ipsum dolor sit amet, consectetur adipisicing elit, sed do eiusmod tempor incididunt ut labore et dolore magna aliqua. Lorem ipsum dolor sit amet, consectetur adipisicing elit, sed do eiusmod tempor incididunt ut labore et dolore magna aliqua." style="text;html=1;strokeColor=none;fillColor=none;spacing=5;spacingTop=-20;whiteSpace=wrap;overflow=hidden;rounded=0;fontSize=24;" vertex="1" parent="1">
          <mxGeometry x="100" y="630" width="900" height="400" as="geometry" />
        </mxCell>
      </root>
    </mxGraphModel>
  </diagram>
  <diagram name="Predict" id="ZeoZo5SMHD47Z12Ni2xi">
    <mxGraphModel dx="1303" dy="788" grid="1" gridSize="10" guides="1" tooltips="1" connect="1" arrows="1" fold="1" page="1" pageScale="1" pageWidth="1600" pageHeight="900" background="none" math="0" shadow="0">
      <root>
        <mxCell id="0" />
        <mxCell id="1" parent="0" />
        <mxCell id="7026571954dc6520-1" value="" style="strokeWidth=1;shadow=0;dashed=0;align=center;html=1;shape=mxgraph.mockup.containers.browserWindow;rSize=0;strokeColor=#666666;mainText=,;recursiveResize=0;rounded=0;labelBackgroundColor=none;fontFamily=Verdana;fontSize=12" parent="1" vertex="1">
          <mxGeometry x="10" y="170" width="1160" height="1070" as="geometry" />
        </mxCell>
        <mxCell id="7026571954dc6520-2" value="Predict" style="strokeWidth=1;shadow=0;dashed=0;align=center;html=1;shape=mxgraph.mockup.containers.anchor;fontSize=17;fontColor=#666666;align=left;" parent="7026571954dc6520-1" vertex="1">
          <mxGeometry x="60" y="12" width="110" height="26" as="geometry" />
        </mxCell>
        <mxCell id="7026571954dc6520-3" value="https://www.default.com" style="strokeWidth=1;shadow=0;dashed=0;align=center;html=1;shape=mxgraph.mockup.containers.anchor;rSize=0;fontSize=17;fontColor=#666666;align=left;" parent="7026571954dc6520-1" vertex="1">
          <mxGeometry x="130" y="60" width="250" height="26" as="geometry" />
        </mxCell>
        <mxCell id="7026571954dc6520-4" value="Enter Parameters For Prediction" style="text;html=1;points=[];align=left;verticalAlign=top;spacingTop=-4;fontSize=30;fontFamily=Verdana" parent="7026571954dc6520-1" vertex="1">
          <mxGeometry x="15" y="340" width="500" height="50" as="geometry" />
        </mxCell>
        <mxCell id="6czDLQYnLvfZXLCgmv8X-1" value="" style="verticalLabelPosition=bottom;shadow=0;dashed=0;align=center;html=1;verticalAlign=top;strokeWidth=1;shape=mxgraph.mockup.graphics.simpleIcon;strokeColor=#999999;fillColor=#ffffff;rounded=0;labelBackgroundColor=none;fontFamily=Verdana;fontSize=12;fontColor=#000000;" vertex="1" parent="7026571954dc6520-1">
          <mxGeometry y="110" width="1110" height="200" as="geometry" />
        </mxCell>
        <mxCell id="6czDLQYnLvfZXLCgmv8X-16" value="" style="rounded=1;whiteSpace=wrap;html=1;" vertex="1" parent="7026571954dc6520-1">
          <mxGeometry x="310" y="405" width="130" height="45" as="geometry" />
        </mxCell>
        <mxCell id="6czDLQYnLvfZXLCgmv8X-17" value="&lt;font style=&quot;font-size: 24px;&quot;&gt;HighBP&lt;/font&gt;" style="text;html=1;strokeColor=none;fillColor=none;align=center;verticalAlign=middle;whiteSpace=wrap;rounded=0;" vertex="1" parent="7026571954dc6520-1">
          <mxGeometry x="210" y="410" width="60" height="30" as="geometry" />
        </mxCell>
        <mxCell id="6czDLQYnLvfZXLCgmv8X-20" value="&lt;font style=&quot;font-size: 24px;&quot;&gt;HighChol&lt;/font&gt;" style="text;html=1;strokeColor=none;fillColor=none;align=center;verticalAlign=middle;whiteSpace=wrap;rounded=0;" vertex="1" parent="7026571954dc6520-1">
          <mxGeometry x="210" y="480" width="60" height="30" as="geometry" />
        </mxCell>
        <mxCell id="6czDLQYnLvfZXLCgmv8X-19" value="&lt;span style=&quot;font-size: 24px;&quot;&gt;BMI&lt;/span&gt;" style="text;html=1;strokeColor=none;fillColor=none;align=center;verticalAlign=middle;whiteSpace=wrap;rounded=0;" vertex="1" parent="7026571954dc6520-1">
          <mxGeometry x="210" y="540" width="60" height="30" as="geometry" />
        </mxCell>
        <mxCell id="6czDLQYnLvfZXLCgmv8X-18" value="&lt;font style=&quot;font-size: 24px;&quot;&gt;Smoker&lt;/font&gt;" style="text;html=1;strokeColor=none;fillColor=none;align=center;verticalAlign=middle;whiteSpace=wrap;rounded=0;" vertex="1" parent="7026571954dc6520-1">
          <mxGeometry x="210" y="610" width="60" height="30" as="geometry" />
        </mxCell>
        <mxCell id="6czDLQYnLvfZXLCgmv8X-26" value="" style="rounded=1;whiteSpace=wrap;html=1;" vertex="1" parent="7026571954dc6520-1">
          <mxGeometry x="310" y="670" width="130" height="45" as="geometry" />
        </mxCell>
        <mxCell id="6czDLQYnLvfZXLCgmv8X-25" value="" style="rounded=1;whiteSpace=wrap;html=1;" vertex="1" parent="7026571954dc6520-1">
          <mxGeometry x="310" y="540" width="130" height="45" as="geometry" />
        </mxCell>
        <mxCell id="6czDLQYnLvfZXLCgmv8X-24" value="" style="rounded=1;whiteSpace=wrap;html=1;" vertex="1" parent="7026571954dc6520-1">
          <mxGeometry x="310" y="602.5" width="130" height="45" as="geometry" />
        </mxCell>
        <mxCell id="6czDLQYnLvfZXLCgmv8X-23" value="" style="rounded=1;whiteSpace=wrap;html=1;" vertex="1" parent="7026571954dc6520-1">
          <mxGeometry x="310" y="472.5" width="130" height="45" as="geometry" />
        </mxCell>
        <mxCell id="6czDLQYnLvfZXLCgmv8X-28" value="&lt;font style=&quot;font-size: 24px;&quot;&gt;Diabetes&lt;/font&gt;" style="text;html=1;strokeColor=none;fillColor=none;align=center;verticalAlign=middle;whiteSpace=wrap;rounded=0;" vertex="1" parent="7026571954dc6520-1">
          <mxGeometry x="605" y="412.5" width="60" height="30" as="geometry" />
        </mxCell>
        <mxCell id="6czDLQYnLvfZXLCgmv8X-29" value="" style="rounded=1;whiteSpace=wrap;html=1;" vertex="1" parent="7026571954dc6520-1">
          <mxGeometry x="700" y="405" width="130" height="45" as="geometry" />
        </mxCell>
        <mxCell id="6czDLQYnLvfZXLCgmv8X-30" value="&lt;font style=&quot;font-size: 24px;&quot;&gt;Sex&lt;/font&gt;" style="text;html=1;strokeColor=none;fillColor=none;align=center;verticalAlign=middle;whiteSpace=wrap;rounded=0;" vertex="1" parent="7026571954dc6520-1">
          <mxGeometry x="600" y="540" width="60" height="30" as="geometry" />
        </mxCell>
        <mxCell id="6czDLQYnLvfZXLCgmv8X-31" value="&lt;font style=&quot;font-size: 24px;&quot;&gt;Age&lt;/font&gt;" style="text;html=1;strokeColor=none;fillColor=none;align=center;verticalAlign=middle;whiteSpace=wrap;rounded=0;" vertex="1" parent="7026571954dc6520-1">
          <mxGeometry x="605" y="610" width="60" height="30" as="geometry" />
        </mxCell>
        <mxCell id="6czDLQYnLvfZXLCgmv8X-32" value="&lt;span style=&quot;font-size: 24px;&quot;&gt;Stroke&lt;/span&gt;" style="text;html=1;strokeColor=none;fillColor=none;align=center;verticalAlign=middle;whiteSpace=wrap;rounded=0;" vertex="1" parent="7026571954dc6520-1">
          <mxGeometry x="210" y="670" width="60" height="30" as="geometry" />
        </mxCell>
        <mxCell id="6czDLQYnLvfZXLCgmv8X-33" value="&lt;font style=&quot;font-size: 24px;&quot;&gt;HvyAlcohol&lt;br&gt;&amp;nbsp;Consump&lt;/font&gt;" style="text;html=1;strokeColor=none;fillColor=none;align=center;verticalAlign=middle;whiteSpace=wrap;rounded=0;" vertex="1" parent="7026571954dc6520-1">
          <mxGeometry x="605" y="480" width="60" height="30" as="geometry" />
        </mxCell>
        <mxCell id="6czDLQYnLvfZXLCgmv8X-35" value="" style="rounded=1;whiteSpace=wrap;html=1;" vertex="1" parent="7026571954dc6520-1">
          <mxGeometry x="700" y="540" width="130" height="45" as="geometry" />
        </mxCell>
        <mxCell id="6czDLQYnLvfZXLCgmv8X-36" value="" style="rounded=1;whiteSpace=wrap;html=1;" vertex="1" parent="7026571954dc6520-1">
          <mxGeometry x="700" y="602.5" width="130" height="45" as="geometry" />
        </mxCell>
        <mxCell id="6czDLQYnLvfZXLCgmv8X-37" value="" style="rounded=1;whiteSpace=wrap;html=1;" vertex="1" parent="7026571954dc6520-1">
          <mxGeometry x="700" y="472.5" width="130" height="45" as="geometry" />
        </mxCell>
        <mxCell id="6czDLQYnLvfZXLCgmv8X-67" value="&lt;font style=&quot;font-size: 24px;&quot;&gt;Predict&lt;/font&gt;" style="rounded=1;whiteSpace=wrap;html=1;" vertex="1" parent="7026571954dc6520-1">
          <mxGeometry x="480" y="770" width="130" height="45" as="geometry" />
        </mxCell>
        <mxCell id="yil7WbPHh_8H_s9sjf6q-1" value="" style="rounded=1;whiteSpace=wrap;html=1;" vertex="1" parent="7026571954dc6520-1">
          <mxGeometry x="700" y="602.5" width="130" height="45" as="geometry" />
        </mxCell>
        <mxCell id="yil7WbPHh_8H_s9sjf6q-2" value="" style="rounded=1;whiteSpace=wrap;html=1;" vertex="1" parent="7026571954dc6520-1">
          <mxGeometry x="700" y="540" width="130" height="45" as="geometry" />
        </mxCell>
        <mxCell id="yil7WbPHh_8H_s9sjf6q-3" value="" style="rounded=1;whiteSpace=wrap;html=1;" vertex="1" parent="7026571954dc6520-1">
          <mxGeometry x="700" y="472.5" width="130" height="45" as="geometry" />
        </mxCell>
        <mxCell id="yil7WbPHh_8H_s9sjf6q-33" value="Prediction:&amp;nbsp;" style="text;html=1;points=[];align=center;verticalAlign=top;spacingTop=-4;fontSize=30;fontFamily=Verdana" vertex="1" parent="7026571954dc6520-1">
          <mxGeometry x="290" y="890" width="500" height="50" as="geometry" />
        </mxCell>
      </root>
    </mxGraphModel>
  </diagram>
  <diagram name="Prediction History" id="QiFfH6-jYumLeRh3xiWd">
    <mxGraphModel dx="1564" dy="946" grid="1" gridSize="10" guides="1" tooltips="1" connect="1" arrows="1" fold="1" page="1" pageScale="1" pageWidth="1600" pageHeight="900" background="none" math="0" shadow="0">
      <root>
        <mxCell id="CGbK0AJwOuLFmrDvbF8Z-0" />
        <mxCell id="CGbK0AJwOuLFmrDvbF8Z-1" parent="CGbK0AJwOuLFmrDvbF8Z-0" />
        <mxCell id="CGbK0AJwOuLFmrDvbF8Z-2" value="" style="strokeWidth=1;shadow=0;dashed=0;align=center;html=1;shape=mxgraph.mockup.containers.browserWindow;rSize=0;strokeColor=#666666;mainText=,;recursiveResize=0;rounded=0;labelBackgroundColor=none;fontFamily=Verdana;fontSize=12" vertex="1" parent="CGbK0AJwOuLFmrDvbF8Z-1">
          <mxGeometry x="10" y="170" width="1280" height="1070" as="geometry" />
        </mxCell>
        <mxCell id="CGbK0AJwOuLFmrDvbF8Z-3" value="History" style="strokeWidth=1;shadow=0;dashed=0;align=center;html=1;shape=mxgraph.mockup.containers.anchor;fontSize=17;fontColor=#666666;align=left;" vertex="1" parent="CGbK0AJwOuLFmrDvbF8Z-2">
          <mxGeometry x="60" y="12" width="110" height="26" as="geometry" />
        </mxCell>
        <mxCell id="CGbK0AJwOuLFmrDvbF8Z-4" value="https://www.default.com" style="strokeWidth=1;shadow=0;dashed=0;align=center;html=1;shape=mxgraph.mockup.containers.anchor;rSize=0;fontSize=17;fontColor=#666666;align=left;" vertex="1" parent="CGbK0AJwOuLFmrDvbF8Z-2">
          <mxGeometry x="130" y="60" width="250" height="26" as="geometry" />
        </mxCell>
        <mxCell id="CGbK0AJwOuLFmrDvbF8Z-5" value="Prediction History" style="text;html=1;points=[];align=left;verticalAlign=top;spacingTop=-4;fontSize=30;fontFamily=Verdana" vertex="1" parent="CGbK0AJwOuLFmrDvbF8Z-2">
          <mxGeometry x="40" y="340" width="500" height="50" as="geometry" />
        </mxCell>
        <mxCell id="CGbK0AJwOuLFmrDvbF8Z-6" value="" style="verticalLabelPosition=bottom;shadow=0;dashed=0;align=center;html=1;verticalAlign=top;strokeWidth=1;shape=mxgraph.mockup.graphics.simpleIcon;strokeColor=#999999;fillColor=#ffffff;rounded=0;labelBackgroundColor=none;fontFamily=Verdana;fontSize=12;fontColor=#000000;" vertex="1" parent="CGbK0AJwOuLFmrDvbF8Z-2">
          <mxGeometry y="110" width="1280" height="200" as="geometry" />
        </mxCell>
        <mxCell id="_0tgyXewWuJT7irl3SuE-0" value="" style="shape=table;startSize=0;container=1;collapsible=0;childLayout=tableLayout;fontStyle=1;align=center;fontSize=24;movable=1;resizable=1;rotatable=1;deletable=1;editable=1;connectable=1;" vertex="1" parent="CGbK0AJwOuLFmrDvbF8Z-2">
          <mxGeometry x="110" y="420" width="320" height="310" as="geometry" />
        </mxCell>
        <mxCell id="_0tgyXewWuJT7irl3SuE-1" value="" style="shape=tableRow;horizontal=0;startSize=0;swimlaneHead=0;swimlaneBody=0;top=0;left=0;bottom=0;right=0;collapsible=0;dropTarget=0;fillColor=none;points=[[0,0.5],[1,0.5]];portConstraint=eastwest;fontSize=24;" vertex="1" parent="_0tgyXewWuJT7irl3SuE-0">
          <mxGeometry width="320" height="103" as="geometry" />
        </mxCell>
        <mxCell id="_0tgyXewWuJT7irl3SuE-2" value="Parameter&amp;nbsp;&lt;br&gt;1" style="shape=partialRectangle;html=1;whiteSpace=wrap;connectable=0;fillColor=none;top=0;left=0;bottom=0;right=0;overflow=hidden;fontSize=24;" vertex="1" parent="_0tgyXewWuJT7irl3SuE-1">
          <mxGeometry width="108" height="103" as="geometry">
            <mxRectangle width="108" height="103" as="alternateBounds" />
          </mxGeometry>
        </mxCell>
        <mxCell id="_0tgyXewWuJT7irl3SuE-3" value="Parameter&amp;nbsp;&lt;br&gt;2" style="shape=partialRectangle;html=1;whiteSpace=wrap;connectable=0;fillColor=none;top=0;left=0;bottom=0;right=0;overflow=hidden;fontSize=24;" vertex="1" parent="_0tgyXewWuJT7irl3SuE-1">
          <mxGeometry x="108" width="107" height="103" as="geometry">
            <mxRectangle width="107" height="103" as="alternateBounds" />
          </mxGeometry>
        </mxCell>
        <mxCell id="_0tgyXewWuJT7irl3SuE-4" value="Parameter&amp;nbsp;&lt;br&gt;3" style="shape=partialRectangle;html=1;whiteSpace=wrap;connectable=0;fillColor=none;top=0;left=0;bottom=0;right=0;overflow=hidden;fontSize=24;" vertex="1" parent="_0tgyXewWuJT7irl3SuE-1">
          <mxGeometry x="215" width="105" height="103" as="geometry">
            <mxRectangle width="105" height="103" as="alternateBounds" />
          </mxGeometry>
        </mxCell>
        <mxCell id="_0tgyXewWuJT7irl3SuE-5" value="" style="shape=tableRow;horizontal=0;startSize=0;swimlaneHead=0;swimlaneBody=0;top=0;left=0;bottom=0;right=0;collapsible=0;dropTarget=0;fillColor=none;points=[[0,0.5],[1,0.5]];portConstraint=eastwest;fontSize=24;" vertex="1" parent="_0tgyXewWuJT7irl3SuE-0">
          <mxGeometry y="103" width="320" height="104" as="geometry" />
        </mxCell>
        <mxCell id="_0tgyXewWuJT7irl3SuE-6" value="" style="shape=partialRectangle;html=1;whiteSpace=wrap;connectable=0;fillColor=none;top=0;left=0;bottom=0;right=0;overflow=hidden;fontSize=24;" vertex="1" parent="_0tgyXewWuJT7irl3SuE-5">
          <mxGeometry width="108" height="104" as="geometry">
            <mxRectangle width="108" height="104" as="alternateBounds" />
          </mxGeometry>
        </mxCell>
        <mxCell id="_0tgyXewWuJT7irl3SuE-7" value="" style="shape=partialRectangle;html=1;whiteSpace=wrap;connectable=0;fillColor=none;top=0;left=0;bottom=0;right=0;overflow=hidden;fontSize=24;" vertex="1" parent="_0tgyXewWuJT7irl3SuE-5">
          <mxGeometry x="108" width="107" height="104" as="geometry">
            <mxRectangle width="107" height="104" as="alternateBounds" />
          </mxGeometry>
        </mxCell>
        <mxCell id="_0tgyXewWuJT7irl3SuE-8" value="" style="shape=partialRectangle;html=1;whiteSpace=wrap;connectable=0;fillColor=none;top=0;left=0;bottom=0;right=0;overflow=hidden;fontSize=24;" vertex="1" parent="_0tgyXewWuJT7irl3SuE-5">
          <mxGeometry x="215" width="105" height="104" as="geometry">
            <mxRectangle width="105" height="104" as="alternateBounds" />
          </mxGeometry>
        </mxCell>
        <mxCell id="_0tgyXewWuJT7irl3SuE-9" value="" style="shape=tableRow;horizontal=0;startSize=0;swimlaneHead=0;swimlaneBody=0;top=0;left=0;bottom=0;right=0;collapsible=0;dropTarget=0;fillColor=none;points=[[0,0.5],[1,0.5]];portConstraint=eastwest;fontSize=24;" vertex="1" parent="_0tgyXewWuJT7irl3SuE-0">
          <mxGeometry y="207" width="320" height="103" as="geometry" />
        </mxCell>
        <mxCell id="_0tgyXewWuJT7irl3SuE-10" value="" style="shape=partialRectangle;html=1;whiteSpace=wrap;connectable=0;fillColor=none;top=0;left=0;bottom=0;right=0;overflow=hidden;fontSize=24;" vertex="1" parent="_0tgyXewWuJT7irl3SuE-9">
          <mxGeometry width="108" height="103" as="geometry">
            <mxRectangle width="108" height="103" as="alternateBounds" />
          </mxGeometry>
        </mxCell>
        <mxCell id="_0tgyXewWuJT7irl3SuE-11" value="" style="shape=partialRectangle;html=1;whiteSpace=wrap;connectable=0;fillColor=none;top=0;left=0;bottom=0;right=0;overflow=hidden;fontSize=24;" vertex="1" parent="_0tgyXewWuJT7irl3SuE-9">
          <mxGeometry x="108" width="107" height="103" as="geometry">
            <mxRectangle width="107" height="103" as="alternateBounds" />
          </mxGeometry>
        </mxCell>
        <mxCell id="_0tgyXewWuJT7irl3SuE-12" value="" style="shape=partialRectangle;html=1;whiteSpace=wrap;connectable=0;fillColor=none;top=0;left=0;bottom=0;right=0;overflow=hidden;fontSize=24;" vertex="1" parent="_0tgyXewWuJT7irl3SuE-9">
          <mxGeometry x="215" width="105" height="103" as="geometry">
            <mxRectangle width="105" height="103" as="alternateBounds" />
          </mxGeometry>
        </mxCell>
        <mxCell id="_0tgyXewWuJT7irl3SuE-103" value="" style="shape=table;startSize=0;container=1;collapsible=0;childLayout=tableLayout;fontStyle=1;align=center;fontSize=24;movable=1;resizable=1;rotatable=1;deletable=1;editable=1;connectable=1;" vertex="1" parent="CGbK0AJwOuLFmrDvbF8Z-2">
          <mxGeometry x="747" y="420" width="320" height="310" as="geometry" />
        </mxCell>
        <mxCell id="_0tgyXewWuJT7irl3SuE-104" value="" style="shape=tableRow;horizontal=0;startSize=0;swimlaneHead=0;swimlaneBody=0;top=0;left=0;bottom=0;right=0;collapsible=0;dropTarget=0;fillColor=none;points=[[0,0.5],[1,0.5]];portConstraint=eastwest;fontSize=24;" vertex="1" parent="_0tgyXewWuJT7irl3SuE-103">
          <mxGeometry width="320" height="102" as="geometry" />
        </mxCell>
        <mxCell id="_0tgyXewWuJT7irl3SuE-105" value="Parameter&amp;nbsp;&lt;br&gt;7" style="shape=partialRectangle;html=1;whiteSpace=wrap;connectable=0;fillColor=none;top=0;left=0;bottom=0;right=0;overflow=hidden;fontSize=24;" vertex="1" parent="_0tgyXewWuJT7irl3SuE-104">
          <mxGeometry width="108" height="102" as="geometry">
            <mxRectangle width="108" height="102" as="alternateBounds" />
          </mxGeometry>
        </mxCell>
        <mxCell id="_0tgyXewWuJT7irl3SuE-106" value="Parameter&amp;nbsp;&lt;br&gt;8" style="shape=partialRectangle;html=1;whiteSpace=wrap;connectable=0;fillColor=none;top=0;left=0;bottom=0;right=0;overflow=hidden;fontSize=24;" vertex="1" parent="_0tgyXewWuJT7irl3SuE-104">
          <mxGeometry x="108" width="107" height="102" as="geometry">
            <mxRectangle width="107" height="102" as="alternateBounds" />
          </mxGeometry>
        </mxCell>
        <mxCell id="_0tgyXewWuJT7irl3SuE-107" value="Parameter&amp;nbsp;&lt;br&gt;9" style="shape=partialRectangle;html=1;whiteSpace=wrap;connectable=0;fillColor=none;top=0;left=0;bottom=0;right=0;overflow=hidden;fontSize=24;" vertex="1" parent="_0tgyXewWuJT7irl3SuE-104">
          <mxGeometry x="215" width="105" height="102" as="geometry">
            <mxRectangle width="105" height="102" as="alternateBounds" />
          </mxGeometry>
        </mxCell>
        <mxCell id="_0tgyXewWuJT7irl3SuE-108" value="" style="shape=tableRow;horizontal=0;startSize=0;swimlaneHead=0;swimlaneBody=0;top=0;left=0;bottom=0;right=0;collapsible=0;dropTarget=0;fillColor=none;points=[[0,0.5],[1,0.5]];portConstraint=eastwest;fontSize=24;" vertex="1" parent="_0tgyXewWuJT7irl3SuE-103">
          <mxGeometry y="102" width="320" height="106" as="geometry" />
        </mxCell>
        <mxCell id="_0tgyXewWuJT7irl3SuE-109" value="" style="shape=partialRectangle;html=1;whiteSpace=wrap;connectable=0;fillColor=none;top=0;left=0;bottom=0;right=0;overflow=hidden;fontSize=24;" vertex="1" parent="_0tgyXewWuJT7irl3SuE-108">
          <mxGeometry width="108" height="106" as="geometry">
            <mxRectangle width="108" height="106" as="alternateBounds" />
          </mxGeometry>
        </mxCell>
        <mxCell id="_0tgyXewWuJT7irl3SuE-110" value="" style="shape=partialRectangle;html=1;whiteSpace=wrap;connectable=0;fillColor=none;top=0;left=0;bottom=0;right=0;overflow=hidden;fontSize=24;" vertex="1" parent="_0tgyXewWuJT7irl3SuE-108">
          <mxGeometry x="108" width="107" height="106" as="geometry">
            <mxRectangle width="107" height="106" as="alternateBounds" />
          </mxGeometry>
        </mxCell>
        <mxCell id="_0tgyXewWuJT7irl3SuE-111" value="" style="shape=partialRectangle;html=1;whiteSpace=wrap;connectable=0;fillColor=none;top=0;left=0;bottom=0;right=0;overflow=hidden;fontSize=24;" vertex="1" parent="_0tgyXewWuJT7irl3SuE-108">
          <mxGeometry x="215" width="105" height="106" as="geometry">
            <mxRectangle width="105" height="106" as="alternateBounds" />
          </mxGeometry>
        </mxCell>
        <mxCell id="_0tgyXewWuJT7irl3SuE-112" value="" style="shape=tableRow;horizontal=0;startSize=0;swimlaneHead=0;swimlaneBody=0;top=0;left=0;bottom=0;right=0;collapsible=0;dropTarget=0;fillColor=none;points=[[0,0.5],[1,0.5]];portConstraint=eastwest;fontSize=24;" vertex="1" parent="_0tgyXewWuJT7irl3SuE-103">
          <mxGeometry y="208" width="320" height="102" as="geometry" />
        </mxCell>
        <mxCell id="_0tgyXewWuJT7irl3SuE-113" value="" style="shape=partialRectangle;html=1;whiteSpace=wrap;connectable=0;fillColor=none;top=0;left=0;bottom=0;right=0;overflow=hidden;fontSize=24;" vertex="1" parent="_0tgyXewWuJT7irl3SuE-112">
          <mxGeometry width="108" height="102" as="geometry">
            <mxRectangle width="108" height="102" as="alternateBounds" />
          </mxGeometry>
        </mxCell>
        <mxCell id="_0tgyXewWuJT7irl3SuE-114" value="" style="shape=partialRectangle;html=1;whiteSpace=wrap;connectable=0;fillColor=none;top=0;left=0;bottom=0;right=0;overflow=hidden;fontSize=24;" vertex="1" parent="_0tgyXewWuJT7irl3SuE-112">
          <mxGeometry x="108" width="107" height="102" as="geometry">
            <mxRectangle width="107" height="102" as="alternateBounds" />
          </mxGeometry>
        </mxCell>
        <mxCell id="_0tgyXewWuJT7irl3SuE-115" value="" style="shape=partialRectangle;html=1;whiteSpace=wrap;connectable=0;fillColor=none;top=0;left=0;bottom=0;right=0;overflow=hidden;fontSize=24;" vertex="1" parent="_0tgyXewWuJT7irl3SuE-112">
          <mxGeometry x="215" width="105" height="102" as="geometry">
            <mxRectangle width="105" height="102" as="alternateBounds" />
          </mxGeometry>
        </mxCell>
        <mxCell id="_0tgyXewWuJT7irl3SuE-90" value="" style="shape=table;startSize=0;container=1;collapsible=0;childLayout=tableLayout;fontStyle=1;align=center;fontSize=24;movable=1;resizable=1;rotatable=1;deletable=1;editable=1;connectable=1;" vertex="1" parent="CGbK0AJwOuLFmrDvbF8Z-2">
          <mxGeometry x="430" y="420" width="320" height="310" as="geometry" />
        </mxCell>
        <mxCell id="_0tgyXewWuJT7irl3SuE-91" value="" style="shape=tableRow;horizontal=0;startSize=0;swimlaneHead=0;swimlaneBody=0;top=0;left=0;bottom=0;right=0;collapsible=0;dropTarget=0;fillColor=none;points=[[0,0.5],[1,0.5]];portConstraint=eastwest;fontSize=24;" vertex="1" parent="_0tgyXewWuJT7irl3SuE-90">
          <mxGeometry width="320" height="103" as="geometry" />
        </mxCell>
        <mxCell id="_0tgyXewWuJT7irl3SuE-92" value="Parameter&amp;nbsp;&lt;br&gt;4" style="shape=partialRectangle;html=1;whiteSpace=wrap;connectable=0;fillColor=none;top=0;left=0;bottom=0;right=0;overflow=hidden;fontSize=24;" vertex="1" parent="_0tgyXewWuJT7irl3SuE-91">
          <mxGeometry width="108" height="103" as="geometry">
            <mxRectangle width="108" height="103" as="alternateBounds" />
          </mxGeometry>
        </mxCell>
        <mxCell id="_0tgyXewWuJT7irl3SuE-93" value="Parameter&amp;nbsp;&lt;br&gt;5" style="shape=partialRectangle;html=1;whiteSpace=wrap;connectable=0;fillColor=none;top=0;left=0;bottom=0;right=0;overflow=hidden;fontSize=24;" vertex="1" parent="_0tgyXewWuJT7irl3SuE-91">
          <mxGeometry x="108" width="107" height="103" as="geometry">
            <mxRectangle width="107" height="103" as="alternateBounds" />
          </mxGeometry>
        </mxCell>
        <mxCell id="_0tgyXewWuJT7irl3SuE-94" value="Parameter&amp;nbsp;&lt;br&gt;6" style="shape=partialRectangle;html=1;whiteSpace=wrap;connectable=0;fillColor=none;top=0;left=0;bottom=0;right=0;overflow=hidden;fontSize=24;" vertex="1" parent="_0tgyXewWuJT7irl3SuE-91">
          <mxGeometry x="215" width="105" height="103" as="geometry">
            <mxRectangle width="105" height="103" as="alternateBounds" />
          </mxGeometry>
        </mxCell>
        <mxCell id="_0tgyXewWuJT7irl3SuE-95" value="" style="shape=tableRow;horizontal=0;startSize=0;swimlaneHead=0;swimlaneBody=0;top=0;left=0;bottom=0;right=0;collapsible=0;dropTarget=0;fillColor=none;points=[[0,0.5],[1,0.5]];portConstraint=eastwest;fontSize=24;" vertex="1" parent="_0tgyXewWuJT7irl3SuE-90">
          <mxGeometry y="103" width="320" height="104" as="geometry" />
        </mxCell>
        <mxCell id="_0tgyXewWuJT7irl3SuE-96" value="" style="shape=partialRectangle;html=1;whiteSpace=wrap;connectable=0;fillColor=none;top=0;left=0;bottom=0;right=0;overflow=hidden;fontSize=24;" vertex="1" parent="_0tgyXewWuJT7irl3SuE-95">
          <mxGeometry width="108" height="104" as="geometry">
            <mxRectangle width="108" height="104" as="alternateBounds" />
          </mxGeometry>
        </mxCell>
        <mxCell id="_0tgyXewWuJT7irl3SuE-97" value="" style="shape=partialRectangle;html=1;whiteSpace=wrap;connectable=0;fillColor=none;top=0;left=0;bottom=0;right=0;overflow=hidden;fontSize=24;" vertex="1" parent="_0tgyXewWuJT7irl3SuE-95">
          <mxGeometry x="108" width="107" height="104" as="geometry">
            <mxRectangle width="107" height="104" as="alternateBounds" />
          </mxGeometry>
        </mxCell>
        <mxCell id="_0tgyXewWuJT7irl3SuE-98" value="" style="shape=partialRectangle;html=1;whiteSpace=wrap;connectable=0;fillColor=none;top=0;left=0;bottom=0;right=0;overflow=hidden;fontSize=24;" vertex="1" parent="_0tgyXewWuJT7irl3SuE-95">
          <mxGeometry x="215" width="105" height="104" as="geometry">
            <mxRectangle width="105" height="104" as="alternateBounds" />
          </mxGeometry>
        </mxCell>
        <mxCell id="_0tgyXewWuJT7irl3SuE-99" value="" style="shape=tableRow;horizontal=0;startSize=0;swimlaneHead=0;swimlaneBody=0;top=0;left=0;bottom=0;right=0;collapsible=0;dropTarget=0;fillColor=none;points=[[0,0.5],[1,0.5]];portConstraint=eastwest;fontSize=24;" vertex="1" parent="_0tgyXewWuJT7irl3SuE-90">
          <mxGeometry y="207" width="320" height="103" as="geometry" />
        </mxCell>
        <mxCell id="_0tgyXewWuJT7irl3SuE-100" value="" style="shape=partialRectangle;html=1;whiteSpace=wrap;connectable=0;fillColor=none;top=0;left=0;bottom=0;right=0;overflow=hidden;fontSize=24;" vertex="1" parent="_0tgyXewWuJT7irl3SuE-99">
          <mxGeometry width="108" height="103" as="geometry">
            <mxRectangle width="108" height="103" as="alternateBounds" />
          </mxGeometry>
        </mxCell>
        <mxCell id="_0tgyXewWuJT7irl3SuE-101" value="" style="shape=partialRectangle;html=1;whiteSpace=wrap;connectable=0;fillColor=none;top=0;left=0;bottom=0;right=0;overflow=hidden;fontSize=24;" vertex="1" parent="_0tgyXewWuJT7irl3SuE-99">
          <mxGeometry x="108" width="107" height="103" as="geometry">
            <mxRectangle width="107" height="103" as="alternateBounds" />
          </mxGeometry>
        </mxCell>
        <mxCell id="_0tgyXewWuJT7irl3SuE-102" value="" style="shape=partialRectangle;html=1;whiteSpace=wrap;connectable=0;fillColor=none;top=0;left=0;bottom=0;right=0;overflow=hidden;fontSize=24;" vertex="1" parent="_0tgyXewWuJT7irl3SuE-99">
          <mxGeometry x="215" width="105" height="103" as="geometry">
            <mxRectangle width="105" height="103" as="alternateBounds" />
          </mxGeometry>
        </mxCell>
        <mxCell id="_0tgyXewWuJT7irl3SuE-132" value="Delete Record" style="rounded=0;whiteSpace=wrap;html=1;fontSize=24;" vertex="1" parent="CGbK0AJwOuLFmrDvbF8Z-2">
          <mxGeometry x="1067" y="420" width="110" height="100" as="geometry" />
        </mxCell>
        <mxCell id="_0tgyXewWuJT7irl3SuE-134" value="" style="rounded=0;whiteSpace=wrap;html=1;fontSize=24;" vertex="1" parent="CGbK0AJwOuLFmrDvbF8Z-2">
          <mxGeometry x="1067" y="610" width="110" height="120" as="geometry" />
        </mxCell>
        <mxCell id="_0tgyXewWuJT7irl3SuE-133" value="" style="rounded=0;whiteSpace=wrap;html=1;fontSize=24;" vertex="1" parent="CGbK0AJwOuLFmrDvbF8Z-2">
          <mxGeometry x="1067" y="520" width="110" height="110" as="geometry" />
        </mxCell>
      </root>
    </mxGraphModel>
  </diagram>
</mxfile>
